PathFileType	4	(X/Y/Z)	/Users/itak/Documents/Research/Walk-IL/dataset/trc/00148_00007.trc
DataRate	CameraRate	NumFrames	NumMarkers	Units	OrigDataRate	OrigDataStartFrame	OrigNumFrames
100.000000	100.000000	4	54	mm	100.000000	68	547
Frame#	Time	RPSI			LPSI			L3			STRN			T10			C7			CLAV			RBAK			LBAK			LSHO			LUPA			LAEL			LAOL			LWTS			LWPS			LFRA			LIFD			LHPS			LHTS			RSHO			RUPA			RAEL			RAOL			RWTS			RWPS			RFRA			RIFD			RHTS			RHPS			RBHD			LFHD			RFHD			LBHD			LHIP			RHIP			RASI			LASI			LKNE			LTHI			LANK			LTIP			LTOE			LMT1			LMT5			LHEE			RKNE			RTHI			RANK			RTIP			RTOE			RMT1			RMT5			RHEE			*53			
		X1	Y1	Z1	X2	Y2	Z2	X3	Y3	Z3	X4	Y4	Z4	X5	Y5	Z5	X6	Y6	Z6	X7	Y7	Z7	X8	Y8	Z8	X9	Y9	Z9	X10	Y10	Z10	X11	Y11	Z11	X12	Y12	Z12	X13	Y13	Z13	X14	Y14	Z14	X15	Y15	Z15	X16	Y16	Z16	X17	Y17	Z17	X18	Y18	Z18	X19	Y19	Z19	X20	Y20	Z20	X21	Y21	Z21	X22	Y22	Z22	X23	Y23	Z23	X24	Y24	Z24	X25	Y25	Z25	X26	Y26	Z26	X27	Y27	Z27	X28	Y28	Z28	X29	Y29	Z29	X30	Y30	Z30	X31	Y31	Z31	X32	Y32	Z32	X33	Y33	Z33	X34	Y34	Z34	X35	Y35	Z35	X36	Y36	Z36	X37	Y37	Z37	X38	Y38	Z38	X39	Y39	Z39	X40	Y40	Z40	X41	Y41	Z41	X42	Y42	Z42	X43	Y43	Z43	X44	Y44	Z44	X45	Y45	Z45	X46	Y46	Z46	X47	Y47	Z47	X48	Y48	Z48	X49	Y49	Z49	X50	Y50	Z50	X51	Y51	Z51	X52	Y52	Z52	X53	Y53	Z53	X54	Y54	Z54	

69	0.68	-1392.8798828125	1127.379516601562	-470.1909790039062	-1385.4365234375	1127.64208984375	-604.1784057617188	-1397.570190429688	1159.173706054688	-540.764892578125	-1180.702392578125	1359.447387695312	-531.62890625	-1434.614990234375	1310.670166015625	-545.7761840820312	-1396.586669921875	1603.011962890625	-557.9917602539062	-1215.888427734375	1494.444702148438	-538.3197631835938	-1457.455444335938	1419.935180664062	-472.9380798339844	-1397.232177734375	1583.395751953125	-660.8883056640625	-1306.381958007812	1568.3720703125	-723.4644165039062	-1320.50390625	1435.789428710938	-793.8628540039062	-1298.151733398438	1214.601684570312	-808.0599365234375	-1370.542358398438	1202.865600585938	-760.501953125	-1202.297241210938	959.888671875	-742.2639770507812	-1277.998901367188	932.1760864257812	-780.5753784179688	-1279.433837890625	1098.400756835938	-806.1268310546875	-1191.777587890625	767.6069946289062	-713.3826293945312	-1247.811401367188	857.8500366210938	-773.9418334960938	-1185.08984375	871.5767822265625	-747.1602783203125	-1352.322998046875	1584.626342773438	-373.7769165039062	-1373.337890625	1511.853393554688	-310.0824584960938	-1378.99853515625	1215.660888671875	-287.3214416503906	-1381.214721679688	1213.964721679688	-384.1405029296875	-1230.615356445312	975.9188842773438	-293.3450012207031	-1305.659912109375	957.5726318359375	-264.6456909179688	-1355.181274414062	1143.239013671875	-270.3024291992188	-1199.658813476562	782.2178344726562	-307.9630737304688	-1198.731811523438	869.0930786132812	-285.8915710449219	-1267.180786132812	858.6228637695312	-258.5051574707031	-1377.36865234375	1768.73974609375	-487.4711303710938	-1213.384155273438	1850.373657226562	-610.79248046875	-1226.69189453125	1862.889770507812	-482.1869506835938	-1371.072631835938	1757.646240234375	-622.6207275390625	-1290.15673828125	1036.601318359375	-705.561279296875	-1273.333374023438	1032.437622070312	-344.5136413574219	-1188.380493164062	1105.87939453125	-395.7500915527344	-1185.014404296875	1100.787475585938	-661.3057250976562	-1271.3076171875	534.7757568359375	-670.5956420898438	-1290.197021484375	680.477294921875	-699.1192016601562	-1385.971069335938	36.32004165649414	-655.4837646484375	-1375.131591796875	289.2557678222656	-691.6901245117188	-1152.883056640625	35.30170822143555	-609.7172241210938	-1232.041015625	38.67660522460938	-571.696533203125	-1261.711181640625	35.42960357666016	-685.6826171875	-1451.833251953125	36.46232223510742	-589.4977416992188	-1283.389526367188	539.9697875976562	-370.4647216796875	-1256.333374023438	818.0013427734375	-347.4721069335938	-1385.0419921875	29.20791435241699	-379.4075012207031	-1310.982177734375	408.1783447265625	-356.7989807128906	-1151.682739257812	41.46694564819336	-430.260498046875	-1212.480224609375	32.43172836303711	-472.7121276855469	-1251.516479492188	37.60773468017578	-356.6483764648438	-1442.108642578125	31.28513336181641	-428.0138549804688	nan	nan	nan	
70	0.6900000000000001	-1392.848388671875	1127.371215820312	-470.1182556152344	-1385.428466796875	1127.636474609375	-604.07861328125	-1397.523803710938	1159.167724609375	-540.6828002929688	-1180.655151367188	1359.438842773438	-531.5911254882812	-1434.591064453125	1310.669677734375	-545.7047119140625	-1396.5107421875	1603.008544921875	-557.9669189453125	-1215.837768554688	1494.419189453125	-538.3078002929688	-1457.346801757812	1419.920166015625	-472.8567504882812	-1397.13525390625	1583.357421875	-660.845947265625	-1306.353149414062	1568.295043945312	-723.4602661132812	-1320.453491210938	1435.669677734375	-793.7603149414062	-1298.077514648438	1214.481079101562	-807.822265625	-1370.518432617188	1202.759887695312	-760.250732421875	-1202.191040039062	959.8106689453125	-741.8504638671875	-1277.825805664062	932.0626220703125	-780.1370849609375	-1279.329467773438	1098.273681640625	-805.8192138671875	-1191.587158203125	767.579833984375	-712.8236694335938	-1247.65478515625	857.7669677734375	-773.4470825195312	-1184.921875	871.5382690429688	-746.6909790039062	-1352.199462890625	1584.635375976562	-373.7286071777344	-1373.255737304688	1511.869995117188	-310.0549621582031	-1378.826782226562	1215.672973632812	-287.2909545898438	-1381.062255859375	1213.988647460938	-384.1033020019531	-1230.42138671875	975.9454956054688	-293.4099426269531	-1305.43505859375	957.580078125	-264.6739807128906	-1355.01806640625	1143.25048828125	-270.306396484375	-1199.475708007812	782.245849609375	-308.047607421875	-1198.584594726562	869.123779296875	-285.9967346191406	-1266.944213867188	858.6272583007812	-258.582275390625	-1377.394409179688	1768.631225585938	-487.4093322753906	-1213.468017578125	1850.421508789062	-610.7615966796875	-1226.71533203125	1862.8701171875	-482.1561279296875	-1371.092651367188	1757.589965820312	-622.5728759765625	-1290.121948242188	1036.598999023438	-705.4691162109375	-1273.257934570312	1032.422485351562	-344.4386291503906	-1188.329833984375	1105.8759765625	-395.6913452148438	-1185.030883789062	1100.783569335938	-661.2545776367188	-1271.232788085938	534.7962646484375	-670.53271484375	-1290.188232421875	680.4885864257812	-699.0732421875	-1385.967895507812	36.33465957641602	-655.47705078125	-1375.096435546875	289.2533569335938	-691.6451416015625	-1152.879760742188	35.30325317382812	-609.7156982421875	-1232.041625976562	38.67183685302734	-571.6937255859375	-1261.70947265625	35.43109512329102	-685.6763305664062	-1451.825805664062	36.46618270874023	-589.4844970703125	-1283.351928710938	539.9664306640625	-370.4206848144531	-1256.309326171875	817.9957275390625	-347.40966796875	-1385.052001953125	29.20345497131348	-379.4076232910156	-1310.9677734375	408.1610412597656	-356.7641296386719	-1151.686889648438	41.4670295715332	-430.2607421875	-1212.485229492188	32.43095779418945	-472.7129516601562	-1251.51904296875	37.60762405395508	-356.6491394042969	-1442.112060546875	31.27968406677246	-428.0077819824219	nan	nan	nan	
71	0.7000000000000001	-1392.814819335938	1127.363891601562	-470.0427856445312	-1385.423583984375	1127.632690429688	-603.9813232421875	-1397.47412109375	1159.163940429688	-540.5986328125	-1180.6025390625	1359.428344726562	-531.5567016601562	-1434.564208984375	1310.667602539062	-545.6361694335938	-1396.432861328125	1603.00439453125	-557.9510498046875	-1215.782104492188	1494.388671875	-538.3004760742188	-1457.23828125	1419.906494140625	-472.7833251953125	-1397.030639648438	1583.3173828125	-660.8123779296875	-1306.316650390625	1568.213012695312	-723.459716796875	-1320.400756835938	1435.545654296875	-793.6637573242188	-1298.005493164062	1214.353271484375	-807.5833740234375	-1370.482788085938	1202.653076171875	-759.9981079101562	-1202.12060546875	959.7185668945312	-741.4175415039062	-1277.692749023438	931.9442749023438	-779.69140625	-1279.217651367188	1098.137939453125	-805.5033569335938	-1191.428344726562	767.5443115234375	-712.2550659179688	-1247.506469726562	857.6724243164062	-772.9437255859375	-1184.787963867188	871.478759765625	-746.21630859375	-1352.080322265625	1584.644775390625	-373.6876525878906	-1373.171752929688	1511.884643554688	-310.0354919433594	-1378.656616210938	1215.6845703125	-287.2688598632812	-1380.910278320312	1214.009399414062	-384.0773315429688	-1230.227294921875	975.9682006835938	-293.4803466796875	-1305.216674804688	957.585693359375	-264.714111328125	-1354.853393554688	1143.259155273438	-270.3139038085938	-1199.317260742188	782.2728881835938	-308.1394653320312	-1198.454711914062	869.1444702148438	-286.10546875	-1266.710083007812	858.6324462890625	-258.6678161621094	-1377.412475585938	1768.529296875	-487.3565063476562	-1213.531372070312	1850.461791992188	-610.7254638671875	-1226.722045898438	1862.841918945312	-482.1246643066406	-1371.111572265625	1757.547607421875	-622.532958984375	-1290.075317382812	1036.59375	-705.3790893554688	-1273.1806640625	1032.409057617188	-344.3633728027344	-1188.273315429688	1105.872802734375	-395.6304321289062	-1185.04150390625	1100.779296875	-661.2010498046875	-1271.16015625	534.8161010742188	-670.4721069335938	-1290.176147460938	680.4970092773438	-699.0279541015625	-1385.966430664062	36.34999847412109	-655.47216796875	-1375.066162109375	289.2527160644531	-691.6026611328125	-1152.875610351562	35.30550765991211	-609.7158813476562	-1232.040649414062	38.6668586730957	-571.6902465820312	-1261.7060546875	35.43285751342773	-685.669921875	-1451.815673828125	36.46671676635742	-589.4714965820312	-1283.31640625	539.9622192382812	-370.3753051757812	-1256.29736328125	817.9834594726562	-347.3441162109375	-1385.061767578125	29.19970703125	-379.4075622558594	-1310.955444335938	408.1463623046875	-356.728271484375	-1151.69189453125	41.46638107299805	-430.2618103027344	-1212.488891601562	32.4300651550293	-472.7124328613281	-1251.521606445312	37.60758590698242	-356.6484680175781	-1442.113403320312	31.26949310302734	-428.001220703125	nan	nan	nan	
72	0.71	-1392.77978515625	1127.357299804688	-469.9638977050781	-1385.422729492188	1127.629760742188	-603.88818359375	-1397.420166015625	1159.159790039062	-540.5106811523438	-1180.545654296875	1359.415405273438	-531.5254516601562	-1434.533447265625	1310.663696289062	-545.5697631835938	-1396.351440429688	1602.998779296875	-557.944091796875	-1215.722534179688	1494.352905273438	-538.2974243164062	-1457.130126953125	1419.894287109375	-472.7174987792969	-1396.918701171875	1583.276245117188	-660.7874755859375	-1306.271606445312	1568.12646484375	-723.4619140625	-1320.347045898438	1435.41943359375	-793.5742797851562	-1297.932250976562	1214.216430664062	-807.3448486328125	-1370.430908203125	1202.544311523438	-759.7471313476562	-1202.076538085938	959.6145629882812	-740.9700317382812	-1277.599243164062	931.8215942382812	-779.2399291992188	-1279.10302734375	1097.995727539062	-805.1797485351562	-1191.294677734375	767.497802734375	-711.67724609375	-1247.374267578125	857.5654907226562	-772.4339599609375	-1184.68798828125	871.398193359375	-745.73388671875	-1351.964965820312	1584.653930664062	-373.6536865234375	-1373.082641601562	1511.897705078125	-310.0235900878906	-1378.48779296875	1215.693969726562	-287.2548217773438	-1380.760986328125	1214.025634765625	-384.0621948242188	-1230.032958984375	975.9859619140625	-293.5567321777344	-1305.003295898438	957.5886840820312	-264.7627868652344	-1354.685302734375	1143.26513671875	-270.3227844238281	-1199.176513671875	782.2988891601562	-308.2388916015625	-1198.342651367188	869.1577758789062	-286.2183837890625	-1266.479370117188	858.6393432617188	-258.7603759765625	-1377.421508789062	1768.432495117188	-487.3126831054688	-1213.576416015625	1850.495483398438	-610.6857299804688	-1226.716918945312	1862.807495117188	-482.0924682617188	-1371.126953125	1757.515747070312	-622.5021362304688	-1290.017456054688	1036.5849609375	-705.2916870117188	-1273.10400390625	1032.396850585938	-344.2886962890625	-1188.210815429688	1105.869384765625	-395.5667114257812	-1185.04296875	1100.774658203125	-661.144287109375	-1271.089477539062	534.8350219726562	-670.4146118164062	-1290.160522460938	680.5029296875	-698.9828491210938	-1385.966430664062	36.36532592773438	-655.46875	-1375.0400390625	289.2534790039062	-691.5632934570312	-1152.871826171875	35.30780792236328	-609.7185668945312	-1232.038330078125	38.66241073608398	-571.6860961914062	-1261.701171875	35.43486785888672	-685.6632690429688	-1451.804565429688	36.46376037597656	-589.4588623046875	-1283.282836914062	539.9564208984375	-370.3292236328125	-1256.293090820312	817.967041015625	-347.2767639160156	-1385.07080078125	29.1966438293457	-379.4072875976562	-1310.943969726562	408.1339111328125	-356.691650390625	-1151.6982421875	41.46477127075195	-430.2639465332031	-1212.491088867188	32.42929077148438	-472.7105407714844	-1251.523803710938	37.60774230957031	-356.6465759277344	-1442.113159179688	31.25487327575684	-427.9941101074219	nan	nan	nan	
